# xmcd
#
# Track frame offsets: 
#        150
#        69272
#        96197
#        140662
#        172756
#
# Disc length: 3085 seconds
#
# Revision: 0
# Processed by: cddbd v1.5.1PL0 Copyright (c) Steve Scherf et al.
# Submitted via: ExactAudioCopy v0.95a5
#
DISCID=3a0c0b05
DTITLE=Allman Brothers Band - 2005-08-17 London Canada  Disc 2
DYEAR=2005
DGENRE=Rock
TTITLE0=Jessica
TTITLE1=Don't Think Twice
TTITLE2=I Can Fix It
TTITLE3=One Way Out
TTITLE4=Dreams
EXTD=
EXTT0=
EXTT1=
EXTT2=
EXTT3=
EXTT4=
PLAYORDER=
